<svg width="79" height="45" viewBox="0 0 79 45" fill="none" xmlns="http://www.w3.org/2000/svg">
<g id="logo-color">
<g id="Group">
<g id="Group_2">
<path id="Shape" fill-rule="evenodd" clip-rule="evenodd" d="M76.2989 44.7452H2.45301C1.09814 44.7452 0 43.6468 0 42.2922V2.45369C0 1.09884 1.09814 0.000701904 2.45301 0.000701904H76.2989C77.6537 0.000701904 78.7519 1.09884 78.7519 2.45369V42.2922C78.7519 43.6468 77.6537 44.7452 76.2989 44.7452Z" fill="#FF0000"/>
<path id="Shape_2" fill-rule="evenodd" clip-rule="evenodd" d="M19.3425 14.8338C18.0433 15.6002 17.0176 16.6456 16.2647 17.9701C15.511 19.295 15.1349 20.75 15.1349 22.3339C15.1349 23.9446 15.5176 25.4117 16.2841 26.7365C17.0499 28.0608 18.0762 29.1131 19.3619 29.8922C20.6478 30.6713 22.0436 31.061 23.5502 31.061C25.0565 31.061 26.4396 30.6782 27.6996 29.9115C28.959 29.1457 29.9593 28.094 30.6995 26.7558C31.4397 25.4183 31.81 23.9446 31.81 22.3339C31.81 20.75 31.4397 19.295 30.6995 17.9701C29.9593 16.6456 28.959 15.6002 27.6996 14.8338C26.4396 14.0683 25.0565 13.6846 23.5502 13.6846C22.0436 13.6846 20.6409 14.0683 19.3425 14.8338ZM30.9138 10.1392C33.1473 11.3603 34.9071 13.0416 36.1931 15.1846C37.4787 17.3275 38.1217 19.7107 38.1217 22.3339C38.1217 24.9576 37.4787 27.3469 36.1931 29.5028C34.9071 31.6587 33.1473 33.3536 30.9138 34.5868C28.6797 35.821 26.1993 36.4378 23.4723 36.4378C20.745 36.4378 18.2643 35.821 16.0308 34.5868C13.7967 33.3536 12.0375 31.665 10.7515 29.5221C9.46591 27.3792 8.82324 24.9833 8.82324 22.3339C8.82324 19.7107 9.46591 17.3275 10.7515 15.1846C12.0375 13.0416 13.7907 11.3603 16.0115 10.1392C18.232 8.91852 20.7187 8.30786 23.4723 8.30786C26.1993 8.30786 28.6797 8.91852 30.9138 10.1392Z" fill="white"/>
<path id="Shape_3" fill-rule="evenodd" clip-rule="evenodd" d="M45.0505 8.73679H49.0903C49.6747 8.73679 50.1483 9.21072 50.1483 9.79482V19.584C50.1483 19.8762 50.3851 20.1131 50.6773 20.1131H61.9697C62.2619 20.1131 62.4987 19.8762 62.4987 19.584V9.79482C62.4987 9.21072 62.9723 8.73679 63.5567 8.73679H67.5965C68.1809 8.73679 68.6545 9.21072 68.6545 9.79482V34.9514C68.6545 35.5355 68.1809 36.0091 67.5965 36.0091H63.5567C62.9723 36.0091 62.4987 35.5355 62.4987 34.9514V25.7852C62.4987 25.493 62.2619 25.2562 61.9697 25.2562H50.6773C50.3851 25.2562 50.1483 25.493 50.1483 25.7852V34.9514C50.1483 35.5355 49.6747 36.0091 49.0903 36.0091H45.0505C44.4661 36.0091 43.9924 35.5355 43.9924 34.9514V9.79482C43.9924 9.21072 44.4661 8.73679 45.0505 8.73679Z" fill="white"/>
</g>
</g>
</g>
</svg>
