<svg width="173" height="23" viewBox="0 0 173 23" fill="none" xmlns="http://www.w3.org/2000/svg">
<path d="M9.64551 22L5.26562 6.5752H5.13379C5.33887 9.20215 5.44141 11.2432 5.44141 12.6982V22H0.314453V0.583984H8.01953L12.4873 15.7891H12.6045L16.9844 0.583984H24.7041V22H19.3867V12.6104C19.3867 12.1221 19.3916 11.5801 19.4014 10.9844C19.4209 10.3887 19.4893 8.92871 19.6064 6.60449H19.4746L15.1533 22H9.64551ZM42.0332 22H29.3184V0.583984H42.0332V5.22754H35.1045V8.59668H41.5205V13.2402H35.1045V17.2832H42.0332V22ZM63.9619 10.8379C63.9619 14.4121 62.9756 17.166 61.0029 19.0996C59.04 21.0332 56.2764 22 52.7119 22H45.7832V0.583984H53.1953C56.6328 0.583984 59.2842 1.46289 61.1494 3.2207C63.0244 4.97852 63.9619 7.51758 63.9619 10.8379ZM57.9561 11.043C57.9561 9.08008 57.5654 7.625 56.7842 6.67773C56.0127 5.73047 54.8359 5.25684 53.2539 5.25684H51.5693V17.2539H52.8584C54.6162 17.2539 55.9053 16.7461 56.7256 15.7305C57.5459 14.7051 57.9561 13.1426 57.9561 11.043ZM67.8145 22V0.583984H73.6299V22H67.8145ZM87.6045 22L83.2246 6.5752H83.0928C83.2979 9.20215 83.4004 11.2432 83.4004 12.6982V22H78.2734V0.583984H85.9785L90.4463 15.7891H90.5635L94.9434 0.583984H102.663V22H97.3457V12.6104C97.3457 12.1221 97.3506 11.5801 97.3604 10.9844C97.3799 10.3887 97.4482 8.92871 97.5654 6.60449H97.4336L93.1123 22H87.6045ZM119.992 22H107.277V0.583984H119.992V5.22754H113.063V8.59668H119.479V13.2402H113.063V17.2832H119.992V22ZM133.073 22L128.693 6.5752H128.562C128.767 9.20215 128.869 11.2432 128.869 12.6982V22H123.742V0.583984H131.447L135.915 15.7891H136.032L140.412 0.583984H148.132V22H142.814V12.6104C142.814 12.1221 142.819 11.5801 142.829 10.9844C142.849 10.3887 142.917 8.92871 143.034 6.60449H142.902L138.581 22H133.073ZM172.785 11.2627C172.785 14.8662 171.901 17.6055 170.134 19.4805C168.366 21.3555 165.778 22.293 162.37 22.293C159.011 22.293 156.433 21.3506 154.636 19.4658C152.849 17.5811 151.955 14.8369 151.955 11.2334C151.955 7.66895 152.844 4.94922 154.621 3.07422C156.408 1.18945 159.001 0.24707 162.399 0.24707C165.808 0.24707 168.391 1.17969 170.148 3.04492C171.906 4.91016 172.785 7.64941 172.785 11.2627ZM158.049 11.2627C158.049 15.4033 159.489 17.4736 162.37 17.4736C163.835 17.4736 164.919 16.9707 165.622 15.9648C166.335 14.959 166.691 13.3916 166.691 11.2627C166.691 9.12402 166.33 7.54688 165.607 6.53125C164.895 5.50586 163.825 4.99316 162.399 4.99316C159.499 4.99316 158.049 7.08301 158.049 11.2627Z" fill="#FF0000"/>
</svg>
